<svg xmlns="http://www.w3.org/2000/svg" width="35" height="34" viewBox="0 0 35 34" fill="none">
  <path d="M17.1063 0.0395508C7.6587 0.0395508 0 7.62242 0 16.9764C0 26.3304 7.6587 33.9133 17.1063 33.9133C26.5538 33.9133 34.2125 26.3304 34.2125 16.9764C34.2125 7.62242 26.5538 0.0395508 17.1063 0.0395508ZM23.6324 8.6648L21.2664 8.66584C19.411 8.66584 19.0523 9.53876 19.0523 10.8196V13.6438H23.4766L23.4745 18.0673H19.0526V29.4191H14.4379V18.0673H10.5802V13.6438H14.4379V10.3815C14.4379 6.59564 16.7741 4.53376 20.1849 4.53376L23.6327 4.53896V8.6648H23.6324Z" fill="#2E4A7D"/>
</svg>