<svg xmlns="http://www.w3.org/2000/svg" width="35" height="36" viewBox="0 0 35 36" fill="none">
  <path d="M35 14.7572V8.59756C35 6.37083 33.1882 4.55908 30.9616 4.55908H4.03848C1.81175 4.55908 0 6.37083 0 8.59756V14.7572C0 16.9839 1.81175 18.7957 4.03848 18.7957H30.9616C33.1884 18.7957 35 16.9841 35 14.7572ZM33.1361 14.7572C33.1361 15.9565 32.1611 16.9318 30.9615 16.9318H4.03848C2.83918 16.9318 1.86388 15.9565 1.86388 14.7572V8.59756C1.86388 7.39865 2.83918 6.42297 4.03848 6.42297H30.9616C32.1612 6.42297 33.1362 7.39865 33.1362 8.59756V14.7572H33.1361Z" fill="#2E4A7D"/>
  <path d="M29.4431 10.7836H5.45388C4.0766 10.7836 2.95557 11.9045 2.95557 13.2819C2.95557 14.6592 4.0766 15.7802 5.45388 15.7802H29.4418C30.8192 15.7802 31.9404 14.6592 31.9404 13.2819C31.9404 11.9045 30.8204 10.7836 29.4431 10.7836ZM29.4431 13.9162H5.45388C5.10403 13.9162 4.81958 13.6316 4.81958 13.2819C4.81958 12.9322 5.10403 12.6475 5.45388 12.6475H29.4418C29.7919 12.6475 30.0765 12.932 30.0765 13.2819C30.0765 13.6317 29.7925 13.9162 29.4431 13.9162Z" fill="#2E4A7D"/>
  <path d="M20.3215 9.70928H22.8068C23.3219 9.70928 23.7387 9.29184 23.7387 8.77741C23.7387 8.26285 23.3219 7.8454 22.8068 7.8454H20.3215C19.8064 7.8454 19.3896 8.26285 19.3896 8.77741C19.3896 9.29184 19.8064 9.70928 20.3215 9.70928Z" fill="#2E4A7D"/>
  <path d="M26.5349 9.70928H29.0202C29.5353 9.70928 29.9521 9.29184 29.9521 8.77741C29.9521 8.26285 29.5353 7.8454 29.0202 7.8454H26.5349C26.0198 7.8454 25.603 8.26285 25.603 8.77741C25.603 9.29184 26.0198 9.70928 26.5349 9.70928Z" fill="#2E4A7D"/>
  <path d="M9.06499 22.0855C10.1344 21.5357 9.19123 19.9268 8.12453 20.4764C6.40769 21.36 5.67576 22.8077 6.31408 24.6691C6.94201 26.5039 9.02105 28.5195 6.64898 29.8737C5.60503 30.4696 6.54393 32.0799 7.58943 31.4828C9.31447 30.4987 10.0846 29.0109 9.45397 27.076C8.88818 25.3389 6.74089 23.2814 9.06499 22.0855Z" fill="#2E4A7D"/>
  <path d="M19.0054 22.0855C20.0746 21.5357 19.1316 19.9268 18.0649 20.4764C16.3482 21.36 15.6162 22.8077 16.2545 24.6691C16.8824 26.5039 18.9619 28.5195 16.5894 29.8737C15.5454 30.4696 16.4843 32.0799 17.5298 31.4828C19.2549 30.4987 20.0248 29.0109 19.3944 27.076C18.8282 25.3389 16.6812 23.2814 19.0054 22.0855Z" fill="#2E4A7D"/>
  <path d="M28.9464 22.0855C30.0155 21.5357 29.0726 19.9268 28.006 20.4764C26.2889 21.36 25.5571 22.8077 26.1954 24.6691C26.8234 26.5039 28.9027 28.5195 26.5303 29.8737C25.4868 30.4696 26.4253 32.0799 27.4707 31.4828C29.1958 30.4987 29.9656 29.0109 29.3353 27.076C28.7692 25.3389 26.6225 23.2814 28.9464 22.0855Z" fill="#2E4A7D"/>
</svg>