<svg xmlns="http://www.w3.org/2000/svg" width="35" height="36" viewBox="0 0 35 36" fill="none">
  <g clip-path="url(#clip0_4336_561)">
    <path d="M34.9242 16.4138C34.5243 12.0691 32.5157 8.03053 29.2922 5.09014C26.0688 2.14975 21.8631 0.519714 17.5 0.519714C13.1369 0.519714 8.93125 2.14975 5.70781 5.09014C2.48436 8.03053 0.475727 12.0691 0.075844 16.4138C0.0280836 16.9392 1.0676e-05 17.47 1.0676e-05 18.0074C-0.0028809 20.6175 0.581647 23.1947 1.71027 25.5481C3.13363 28.5293 5.37188 31.0466 8.16613 32.8089C10.9604 34.5712 14.1965 35.5065 17.5 35.5065C20.8036 35.5065 24.0396 34.5712 26.8339 32.8089C29.6281 31.0466 31.8664 28.5293 33.2898 25.5481C34.4184 23.1947 35.0029 20.6175 35 18.0074C35 17.47 34.9719 16.9392 34.9242 16.4138ZM26.1089 6.24596L26.989 11.6323L23.3333 13.4603L18.9583 11.2728V7.242L23.7628 4.83976C24.5871 5.23413 25.3726 5.70492 26.1089 6.24596ZM16.0417 7.242V11.2728L11.6667 13.4603L8.011 11.6323L8.8911 6.24596C9.62746 5.70492 10.4129 5.23413 11.2372 4.83976L16.0417 7.242ZM2.91668 18.0074C2.91785 17.1493 2.99458 16.293 3.146 15.4484L6.06741 13.9215L10.3764 16.0751L11.5766 22.0762L9.69137 24.9042L4.41147 23.2855C4.24121 23.2337 4.06282 23.2141 3.88538 23.2275C3.24403 21.5619 2.91563 19.7922 2.91668 18.0074ZM13.7565 32.1015L11.8763 26.8847L13.9056 23.8408H21.0944L23.1237 26.8847L21.2436 32.1015C18.7905 32.7538 16.2095 32.7538 13.7565 32.1015ZM30.5886 23.2855L25.3098 24.9042L23.4234 22.0762L24.6236 16.0751L28.9326 13.9204L31.854 15.4473C32.3246 18.0597 32.0684 20.7512 31.1136 23.2279C30.9365 23.2147 30.7585 23.2342 30.5886 23.2855Z" fill="#2E4A7D"/>
  </g>
  <defs>
    <clipPath id="clip0_4336_561">
      <rect width="35" height="35" fill="white" transform="translate(0 0.50592)"/>
    </clipPath>
  </defs>
</svg>