<svg xmlns="http://www.w3.org/2000/svg" width="35" height="36" viewBox="0 0 35 36" fill="none">
  <path d="M25.4136 16.9448C24.2314 16.9435 23.0626 17.1909 21.9825 17.6707V9.84595C21.9825 9.5116 21.7113 9.24083 21.3772 9.24083H20.6074V7.3937C20.6074 7.05956 20.3365 6.78858 20.0023 6.78858H18.6502V6.06367C18.6502 5.72932 18.3792 5.45855 18.0451 5.45855C17.7107 5.45855 17.44 5.72932 17.44 6.06367V6.78858H16.051C15.7171 6.78858 15.4459 7.05956 15.4459 7.3937V9.24083H14.6378V6.8429C14.6378 6.50855 14.3668 6.23779 14.0327 6.23779H12.4771V4.35718C12.4771 4.02304 12.2062 3.75206 11.872 3.75206H8.39316V2.64521C8.39316 2.31086 8.12239 2.0401 7.78804 2.0401C7.4539 2.0401 7.18272 2.31086 7.18272 2.64521V3.75206H3.84806C3.51371 3.75206 3.24295 4.02304 3.24295 4.35718V6.23779H1.68763C1.3537 6.23779 1.08252 6.50855 1.08252 6.8429V29.0565C1.08252 29.3907 1.3537 29.6616 1.68763 29.6616H18.0682C20.1247 33.2271 24.4443 34.8011 28.3124 33.3944C32.1804 31.9878 34.48 28.0067 33.7656 23.9531C33.0514 19.8996 29.5296 16.9446 25.4136 16.9448ZM4.45318 4.96229H11.2669V6.23779H4.45318V4.96229ZM9.72403 28.4514H8.39316V24.746H9.72403V28.4514ZM7.18272 28.4514H5.99628V24.746H7.18272V28.4514ZM13.4271 28.4514H10.9343V24.1409C10.9343 23.8065 10.6631 23.5358 10.3291 23.5358H5.39096C5.05703 23.5358 4.78584 23.8065 4.78584 24.1409V28.4514H2.29296V7.44802H13.4276L13.4271 28.4514ZM16.6563 7.99881H19.3972V9.24083H16.6563V7.99881ZM14.6378 28.4514V10.4511H20.7725V18.3314C20.3348 18.6184 19.9246 18.9454 19.5467 19.3075C19.4875 19.2888 19.4256 19.2789 19.3633 19.2789H16.0775C15.7432 19.2789 15.4724 19.5501 15.4724 19.8842C15.4724 20.2186 15.7432 20.4893 16.0775 20.4893H18.5213C18.1678 20.9818 17.868 21.5105 17.6271 22.0668H16.0775C15.7432 22.0668 15.4724 22.3377 15.4724 22.6719C15.4724 23.006 15.7432 23.277 16.0775 23.277H17.2088C17.0549 23.8648 16.9648 24.4672 16.9403 25.0747H16.0775C15.7432 25.0747 15.4724 25.3454 15.4724 25.6798C15.4724 26.0137 15.7432 26.2849 16.0775 26.2849H16.9759C17.0507 27.0266 17.2242 27.7551 17.4909 28.4514H14.6378ZM25.4138 32.6965C21.3983 32.6969 18.1428 29.4416 18.1428 25.4263C18.1426 21.4107 21.3978 18.1552 25.4134 18.1552C29.429 18.1552 32.6843 21.4103 32.6843 25.4261C32.6798 29.4395 29.4271 32.6921 25.4136 32.6965H25.4138Z" fill="#3C5D95"/>
  <path d="M4.193 13.8138H11.5287C11.8628 13.8138 12.1338 13.5428 12.1338 13.2084C12.1338 12.8745 11.8628 12.6033 11.5287 12.6033H4.193C3.85886 12.6033 3.58789 12.8745 3.58789 13.2084C3.58789 13.5428 3.85886 13.8138 4.193 13.8138Z" fill="#3C5D95"/>
  <path d="M4.193 17.1883H11.5287C11.8628 17.1883 12.1338 16.9176 12.1338 16.5832C12.1338 16.2491 11.8628 15.9779 11.5287 15.9779H4.193C3.85886 15.9779 3.58789 16.2491 3.58789 16.5832C3.58789 16.9176 3.85886 17.1883 4.193 17.1883Z" fill="#3C5D95"/>
  <path d="M4.193 20.5629H11.5287C11.8628 20.5629 12.1338 20.2922 12.1338 19.9578C12.1338 19.6237 11.8628 19.3527 11.5287 19.3527H4.193C3.85886 19.3527 3.58789 19.6237 3.58789 19.9578C3.58789 20.2922 3.85886 20.5629 4.193 20.5629Z" fill="#3C5D95"/>
  <path d="M4.193 10.439H11.5287C11.8628 10.439 12.1338 10.1683 12.1338 9.83394C12.1338 9.4998 11.8628 9.22882 11.5287 9.22882H4.193C3.85886 9.22882 3.58789 9.4998 3.58789 9.83394C3.58789 10.1683 3.85886 10.439 4.193 10.439Z" fill="#3C5D95"/>
  <path d="M16.0773 17.4819H19.2317C19.5658 17.4819 19.8368 17.2109 19.8368 16.8768C19.8368 16.5424 19.5658 16.2717 19.2317 16.2717H16.0773C15.7429 16.2717 15.4722 16.5424 15.4722 16.8768C15.4722 17.2109 15.7429 17.4819 16.0773 17.4819Z" fill="#3C5D95"/>
  <path d="M16.0773 14.5474H19.2317C19.5658 14.5474 19.8368 14.2766 19.8368 13.9423C19.8368 13.6082 19.5658 13.337 19.2317 13.337H16.0773C15.7429 13.337 15.4722 13.6082 15.4722 13.9423C15.4722 14.2766 15.7429 14.5474 16.0773 14.5474Z" fill="#3C5D95"/>
  <path d="M28.6474 21.1555C27.7905 20.2962 26.627 19.8128 25.4132 19.8128C24.1996 19.8128 23.0361 20.2962 22.179 21.1555C21.3562 21.9831 20.8605 23.0805 20.7839 24.2451C20.7426 24.8853 20.8365 25.5273 21.0593 26.129C21.2926 26.751 21.6494 27.3188 22.1089 27.7983L24.9723 30.8481C25.0868 30.97 25.2464 31.039 25.4134 31.039C25.5806 31.039 25.7402 30.97 25.8547 30.8481L28.7179 27.7983C29.1771 27.3188 29.5342 26.751 29.7671 26.1293C29.9901 25.5275 30.084 24.8858 30.0427 24.2453C29.9663 23.0807 29.4702 21.9831 28.6474 21.1555ZM28.6301 25.7143C28.4529 26.1823 28.1825 26.6095 27.8353 26.9698L25.4132 29.5498L22.9911 26.9698C22.6439 26.6095 22.3733 26.1823 22.196 25.7143C22.0314 25.2711 21.9615 24.798 21.9912 24.3259C22.0484 23.453 22.4196 22.6304 23.0363 22.0099C23.6661 21.3782 24.5213 21.0235 25.4132 21.0235C26.3049 21.0235 27.1603 21.3782 27.7898 22.0099C28.4065 22.6304 28.7777 23.453 28.835 24.3259C28.8647 24.798 28.7948 25.2711 28.6301 25.7143Z" fill="#3C5D95"/>
  <path d="M25.4139 21.8718C24.135 21.8718 23.0947 22.9329 23.0947 24.2368C23.0947 25.5412 24.135 26.6021 25.4139 26.6021C26.6926 26.6021 27.7329 25.5412 27.7329 24.2368C27.7329 22.9329 26.6926 21.8718 25.4139 21.8718ZM25.4139 25.3917C24.8025 25.3917 24.305 24.8738 24.305 24.2368C24.305 23.6004 24.8025 23.082 25.4139 23.082C26.0251 23.082 26.5227 23.6004 26.5227 24.2368C26.5227 24.8735 26.0253 25.3917 25.4139 25.3917Z" fill="#3C5D95"/>
</svg>