<svg xmlns="http://www.w3.org/2000/svg" width="20" height="20" viewBox="0 0 20 20" fill="none">
  <path d="M19.3428 6.04254H12.0283L17.354 1.0132C17.5281 0.848711 17.5848 0.593867 17.4969 0.370352C17.409 0.146836 17.1943 0 16.9555 0H3.01961C2.78077 0 2.56606 0.146836 2.47821 0.370352C2.39029 0.593867 2.44697 0.848711 2.62118 1.0132L7.94675 6.04254H0.632324C0.310753 6.04254 0.0500488 6.30488 0.0500488 6.62848V19.4141C0.0500488 19.7377 0.310753 20 0.632324 20H19.3428C19.6643 20 19.925 19.7377 19.925 19.4141V6.62848C19.925 6.30484 19.6643 6.04254 19.3428 6.04254ZM15.4842 1.17188L11.7227 4.7241C11.6511 4.48203 11.4286 4.30543 11.1648 4.30543H8.8103C8.5465 4.30543 8.32399 4.48207 8.25241 4.7241L4.49095 1.17188H15.4842ZM10.5825 5.4773V7.41199H9.39258V5.4773H10.5825ZM18.7605 18.8281H1.2146V7.21441H8.22803V7.99797C8.22803 8.32156 8.48873 8.58391 8.8103 8.58391H11.1648C11.4864 8.58391 11.7471 8.32156 11.7471 7.99797V7.21441H18.7605V18.8281Z" fill="#2E4A7D"/>
</svg>