<svg xmlns="http://www.w3.org/2000/svg" width="20" height="20" viewBox="0 0 20 20" fill="none">
  <path d="M12.3087 0.778564H9.98752V2.23841H11.5833V4.98778C11.5833 7.40263 9.63085 9.36735 7.2311 9.36735C4.83135 9.36735 2.87894 7.40267 2.87894 4.98782V2.23841H4.4264V0.778564H2.15358C1.75294 0.778564 1.42822 1.10532 1.42822 1.50849V4.98782C1.42822 8.20778 4.0313 10.8272 7.23114 10.8272C10.431 10.8272 13.0341 8.20778 13.0341 4.98782V1.50849C13.0341 1.10532 12.7093 0.778564 12.3087 0.778564Z" fill="#3C5D95"/>
  <path d="M15.1375 11.4354V14.8904C15.1375 16.9029 13.5105 18.5401 11.5107 18.5401C9.51082 18.5401 7.88383 16.9029 7.88383 14.8904V10.1216H6.43311V14.8904C6.43311 17.7077 8.71073 19.9999 11.5107 19.9999C14.3103 19.9999 16.5882 17.7077 16.5882 14.8904V11.4354H15.1375Z" fill="#3C5D95"/>
  <path d="M15.8632 6.71533C14.3829 6.71533 13.1791 7.92678 13.1791 9.41607C13.1791 10.9051 14.3829 12.1168 15.8629 12.1168C17.3429 12.1168 18.5468 10.9051 18.547 9.41607C18.547 7.92678 17.3429 6.71533 15.8632 6.71533ZM15.8629 10.657C15.1828 10.657 14.6296 10.1003 14.6296 9.41611C14.6296 8.73193 15.1828 8.17525 15.8629 8.17525C16.5428 8.17525 17.096 8.73193 17.096 9.41611C17.096 10.1003 16.5428 10.657 15.8629 10.657Z" fill="#3C5D95"/>
  <path d="M4.40224 0C4.00159 0 3.67688 0.326758 3.67688 0.729922V2.28711C3.67688 2.69027 4.00159 3.01703 4.40224 3.01703C4.80288 3.01703 5.1276 2.69027 5.1276 2.28711V0.729922C5.1276 0.326758 4.80288 0 4.40224 0Z" fill="#3C5D95"/>
  <path d="M10.0116 0C9.61097 0 9.28625 0.326758 9.28625 0.729922V2.28711C9.28625 2.69027 9.61097 3.01703 10.0116 3.01703C10.4123 3.01703 10.737 2.69027 10.737 2.28711V0.729922C10.737 0.326758 10.4123 0 10.0116 0Z" fill="#3C5D95"/>
</svg>