<svg xmlns="http://www.w3.org/2000/svg" width="20" height="20" viewBox="0 0 20 20" fill="none">
  <path d="M19.4141 6.04254H12.0536L17.4127 1.0132C17.588 0.848711 17.645 0.593867 17.5566 0.370352C17.4682 0.146836 17.2521 0 17.0118 0H2.98824C2.74789 0 2.53184 0.146836 2.44344 0.370352C2.35496 0.593867 2.41199 0.848711 2.5873 1.0132L7.94637 6.04254H0.585938C0.262344 6.04254 0 6.30488 0 6.62848V19.4141C0 19.7377 0.262344 20 0.585938 20H19.4141C19.7377 20 20 19.7377 20 19.4141V6.62848C20 6.30484 19.7377 6.04254 19.4141 6.04254ZM15.5312 1.17188L11.7461 4.7241C11.674 4.48203 11.4501 4.30543 11.1846 4.30543H8.81535C8.54988 4.30543 8.32598 4.48207 8.25395 4.7241L4.46883 1.17188H15.5312ZM10.5987 5.4773V7.41199H9.40129V5.4773H10.5987ZM18.8281 18.8281H1.17188V7.21441H8.22941V7.99797C8.22941 8.32156 8.49176 8.58391 8.81535 8.58391H11.1846C11.5082 8.58391 11.7706 8.32156 11.7706 7.99797V7.21441H18.8281V18.8281Z" fill="#2E4A7D"/>
  <path d="M7.32915 13.2508C7.74165 12.8732 8.00083 12.3306 8.00083 11.7287C8.00083 10.5906 7.07493 9.66467 5.93685 9.66467C4.79872 9.66467 3.87282 10.5906 3.87282 11.7287C3.87282 12.3456 4.14524 12.8997 4.57571 13.2783C3.68845 13.4867 3.02563 14.2842 3.02563 15.2341V16.8281C3.02563 17.1517 3.28798 17.414 3.61157 17.414H8.43075C8.75435 17.414 9.01669 17.1517 9.01669 16.8281V15.2341C9.01669 14.2357 8.28466 13.4053 7.32915 13.2508ZM5.93685 10.8365C6.42876 10.8365 6.82896 11.2367 6.82896 11.7287C6.82896 12.2206 6.42876 12.6208 5.93685 12.6208C5.44489 12.6208 5.0447 12.2206 5.0447 11.7287C5.0447 11.2367 5.44493 10.8365 5.93685 10.8365ZM7.84481 16.2421H4.19751V15.2341C4.19751 14.7723 4.57321 14.3966 5.03501 14.3966H7.00731C7.46907 14.3966 7.84478 14.7723 7.84478 15.2341V16.2421H7.84481Z" fill="#2E4A7D"/>
  <path d="M16.3885 16.2421H12.816C12.4924 16.2421 12.23 16.5044 12.23 16.828C12.23 17.1516 12.4924 17.4139 12.816 17.4139H16.3885C16.7121 17.4139 16.9744 17.1516 16.9744 16.828C16.9744 16.5044 16.7121 16.2421 16.3885 16.2421Z" fill="#2E4A7D"/>
  <path d="M12.816 15.0702H16.3885C16.7121 15.0702 16.9744 14.8078 16.9744 14.4843C16.9744 14.1607 16.7121 13.8983 16.3885 13.8983H12.816C12.4924 13.8983 12.23 14.1607 12.23 14.4843C12.23 14.8078 12.4924 15.0702 12.816 15.0702Z" fill="#2E4A7D"/>
  <path d="M13.4372 11.2249H14.0162V11.8039C14.0162 12.1275 14.2785 12.3899 14.6021 12.3899C14.9257 12.3899 15.188 12.1275 15.188 11.8039V11.2249H15.7671C16.0907 11.2249 16.353 10.9626 16.353 10.639C16.353 10.3154 16.0907 10.053 15.7671 10.053H15.188V9.474C15.188 9.15041 14.9257 8.88806 14.6021 8.88806C14.2785 8.88806 14.0162 9.15041 14.0162 9.474V10.053H13.4372C13.1136 10.053 12.8512 10.3154 12.8512 10.639C12.8512 10.9626 13.1136 11.2249 13.4372 11.2249Z" fill="#2E4A7D"/>
</svg>