<svg width="25" height="25" viewBox="0 0 25 25" fill="none" xmlns="http://www.w3.org/2000/svg">
<g id="Group 6">
<path id="Vector" d="M9.37473 11.4048C6.83969 11.4048 4.6665 9.02334 4.6665 5.9525C4.6665 2.88163 6.83972 0.5 9.37473 0.5C11.9097 0.5 14.083 2.88163 14.083 5.9525C14.083 9.02334 11.9098 11.4048 9.37473 11.4048ZM9.37473 1.28573C7.02768 1.28573 5.22895 3.44339 5.22895 5.9525C5.22895 8.4614 7.0277 10.619 9.37473 10.619C11.7218 10.619 13.5205 8.4614 13.5205 5.9525C13.5205 3.44339 11.7218 1.28573 9.37473 1.28573Z" fill="black" stroke="#3C5D95"/>
<path id="Vector_2" d="M1.06245 23.2144V23.7144H1.56245H17.187H17.687V23.2144V19.9405C17.687 17.596 16.005 15.5715 13.8017 15.5715H4.9477C2.74444 15.5715 1.06245 17.596 1.06245 19.9405V23.2144ZM17.9682 24.5001H0.781226C0.686773 24.5001 0.5 24.3888 0.5 24.1072V19.9405C0.5 17.034 2.55649 14.7857 4.9477 14.7857H13.8017C16.1929 14.7857 18.2494 17.034 18.2494 19.9405V24.1072C18.2494 24.3888 18.0626 24.5001 17.9682 24.5001Z" fill="black" stroke="#3C5D95"/>
<path id="Vector_3" d="M24.2181 11.7027H15.3642C15.2698 11.7027 15.083 11.5914 15.083 11.3099C15.083 11.0283 15.2698 10.917 15.3642 10.917H24.2181C24.3125 10.917 24.4993 11.0283 24.4993 11.3099C24.4993 11.5914 24.3125 11.7027 24.2181 11.7027Z" fill="black" stroke="#3C5D95"/>
<path id="Vector_4" d="M19.8765 16.3741L19.8758 16.3733C19.7354 16.2127 19.7355 15.9287 19.8757 15.7685L23.4902 11.6374L23.7783 11.3082L23.4902 10.979L19.8757 6.84793C19.7355 6.68766 19.7355 6.40368 19.8757 6.24341C19.9815 6.12242 20.1221 6.1222 20.2284 6.24341C20.2284 6.24345 20.2284 6.24349 20.2285 6.24353L24.3948 11.0053C24.5351 11.1655 24.5351 11.4498 24.3948 11.61L20.2284 16.3719L20.2274 16.373C20.1655 16.4442 20.1012 16.4642 20.0515 16.4642C20.0012 16.4642 19.9371 16.4438 19.8765 16.3741Z" fill="black" stroke="#3C5D95"/>
</g>
</svg>
