<svg xmlns="http://www.w3.org/2000/svg" width="20" height="20" viewBox="0 0 20 20" fill="none">
  <path d="M18.4213 20.0001H16.3948C16.3948 16.5813 13.5272 13.8008 10 13.8008C6.4728 13.8008 3.60624 16.5823 3.60624 20.0001H1.5797C1.5797 15.4626 5.35819 11.7743 10.001 11.7743C14.6428 11.7743 18.4213 15.4626 18.4213 20.0001Z" fill="#2E4A7D"/>
  <path d="M10.001 11.1156C6.93788 11.1156 4.44421 8.62093 4.44421 5.55781C4.4432 2.49367 6.93687 0 10.001 0C13.0662 0 15.5598 2.49265 15.5598 5.55781C15.5598 8.62296 13.0662 11.1156 10.001 11.1156ZM10.001 2.02655C8.0535 2.02655 6.46975 3.61029 6.46975 5.55781C6.46975 7.50532 8.0535 9.08907 10.001 9.08907C11.9495 9.08907 13.5333 7.50532 13.5333 5.55781C13.5333 3.61029 11.9475 2.02655 10.001 2.02655Z" fill="#2E4A7D"/>
</svg>