<svg xmlns="http://www.w3.org/2000/svg" width="20" height="20" viewBox="0 0 20 20" fill="none">
  <g clip-path="url(#clip0_1_630)">
    <path d="M14.2187 6.72118C14.9091 6.72118 15.4687 6.16154 15.4687 5.47119C15.4687 4.78083 14.9091 4.22119 14.2187 4.22119C13.5283 4.22119 12.9687 4.78083 12.9687 5.47119C12.9687 6.16154 13.5283 6.72118 14.2187 6.72118Z" fill="#2E4A7D"/>
    <path d="M19.7842 6.48184C19.367 5.41957 18.602 3.88689 17.3266 2.61752C16.0557 1.35252 14.5393 0.609398 13.4909 0.208697C12.34 -0.231184 11.0321 0.0460801 10.1591 0.915022L7.09122 3.96853C6.18181 4.87364 5.9197 6.26637 6.43896 7.43414C6.59997 7.79632 6.77509 8.15058 6.9622 8.49284L0.228827 15.2262C0.0823044 15.3727 0 15.5714 0 15.7786V19.2161C0 19.6476 0.349764 19.9974 0.781247 19.9974H4.21873C4.65022 19.9974 4.99998 19.6476 4.99998 19.2161V17.8099L6.40622 17.8098C6.83771 17.8098 7.18747 17.4601 7.18747 17.0286V15.6224H8.59372C9.0252 15.6224 9.37496 15.2726 9.37496 14.8411C9.37496 14.4097 9.0252 14.0599 8.59372 14.0599H6.40622C5.97474 14.0599 5.62498 14.4097 5.62498 14.8411V16.2473L4.21873 16.2474C3.78725 16.2474 3.43749 16.5971 3.43749 17.0286V18.4349H1.56249V16.1022L8.4904 9.17437C8.74493 8.91983 8.79262 8.52441 8.60594 8.21667C8.3352 7.77042 8.08649 7.29355 7.86677 6.7993C7.60899 6.21957 7.74032 5.52704 8.19356 5.0759L11.2614 2.02244C11.6994 1.58654 12.3556 1.44752 12.9332 1.66822C13.8403 2.01494 15.1476 2.65314 16.2244 3.72493C17.3078 4.80321 17.9674 6.12988 18.3299 7.05293C18.5561 7.62902 18.4186 8.28351 17.9797 8.72038L14.8748 11.8108C14.4226 12.2607 13.7478 12.3923 13.1554 12.1459C12.6669 11.9427 12.1937 11.7013 11.7492 11.4285C11.3815 11.2028 10.9004 11.3179 10.6747 11.6856C10.449 12.0534 10.5641 12.5345 10.9318 12.7602C11.4456 13.0755 11.9918 13.3542 12.5553 13.5886C13.7328 14.0784 15.0758 13.8151 15.977 12.9182L19.0819 9.82788C19.9626 8.95136 20.2382 7.63796 19.7842 6.48184Z" fill="#2E4A7D"/>
  </g>
  <defs>
    <clipPath id="clip0_1_630">
      <rect width="20" height="20" fill="white"/>
    </clipPath>
  </defs>
</svg>