<svg width="40" height="40" viewBox="0 0 40 40" fill="none" xmlns="http://www.w3.org/2000/svg">
<g id="test 1" clip-path="url(#clip0_4104_82)">
<g id="Group">
<path id="Vector" d="M13.7109 11.3281H7.46094C6.81375 11.3281 6.28906 11.8528 6.28906 12.5C6.28906 13.1472 6.81375 13.6719 7.46094 13.6719H13.7109C14.3581 13.6719 14.8828 13.1472 14.8828 12.5C14.8828 11.8528 14.3581 11.3281 13.7109 11.3281Z" fill="white"/>
<path id="Vector_2" d="M13.7109 17.5781H7.46094C6.81375 17.5781 6.28906 18.1028 6.28906 18.75C6.28906 19.3972 6.81375 19.9219 7.46094 19.9219H13.7109C14.3581 19.9219 14.8828 19.3972 14.8828 18.75C14.8828 18.1028 14.3581 17.5781 13.7109 17.5781Z" fill="white"/>
<path id="Vector_3" d="M13.7109 23.8281H7.46094C6.81375 23.8281 6.28906 24.3528 6.28906 25C6.28906 25.6472 6.81375 26.1719 7.46094 26.1719H13.7109C14.3581 26.1719 14.8828 25.6472 14.8828 25C14.8828 24.3528 14.3581 23.8281 13.7109 23.8281Z" fill="white"/>
<path id="Vector_4" d="M30.5078 21.4788V10.7797C30.5078 9.23516 29.9123 7.77805 28.8309 6.67602L24.076 1.75891C24.0737 1.75656 24.0714 1.75414 24.0691 1.7518C22.9744 0.638516 21.451 0 19.8898 0H4.80469C2.86617 0 1.28906 1.57711 1.28906 3.51562V33.9062C1.28906 35.8448 2.86617 37.4219 4.80469 37.4219H22.9166C24.5866 39.0182 26.8487 40 29.3359 40C34.5053 40 38.7109 35.8295 38.7109 30.7031C38.7109 25.9703 35.1262 22.0524 30.5078 21.4788ZM3.63281 33.9062V3.51562C3.63281 2.86945 4.15852 2.34375 4.80469 2.34375H19.8898C20.8253 2.34375 21.7381 2.72586 22.395 3.39203L27.149 8.30836C27.1512 8.3107 27.1535 8.31305 27.1557 8.31531C27.8059 8.9768 28.1641 9.85195 28.1641 10.7798V21.4799C23.5889 22.0579 20.0391 25.9738 20.0391 30.7032C20.0391 32.2839 20.4361 33.7735 21.1349 35.0782H4.80469C4.15852 35.0781 3.63281 34.5524 3.63281 33.9062ZM29.3359 37.6562C25.502 37.6562 22.3828 34.5371 22.3828 30.7031C22.3828 26.8691 25.502 23.75 29.3359 23.75C33.213 23.75 36.3672 26.8691 36.3672 30.7031C36.3672 34.5371 33.213 37.6562 29.3359 37.6562Z" fill="white"/>
<path id="Vector_5" d="M32.039 27.928C31.5419 27.5138 30.803 27.5809 30.3886 28.078L28.4107 30.4515L27.962 29.5542C27.6726 28.9753 26.9687 28.7405 26.3897 29.0301C25.8108 29.3195 25.5762 30.0235 25.8657 30.6023L27.1157 33.1023C27.2926 33.4561 27.6359 33.6967 28.0287 33.7423C28.074 33.7475 28.119 33.7501 28.164 33.7501C28.5094 33.7501 28.8401 33.5973 29.0641 33.3285L32.1891 29.5785C32.6034 29.0812 32.5362 28.3423 32.039 27.928Z" fill="white"/>
<path id="Vector_6" d="M19.9609 13.6719H21.2109C21.8581 13.6719 22.3828 13.1472 22.3828 12.5C22.3828 11.8528 21.8581 11.3281 21.2109 11.3281H19.9609C19.3137 11.3281 18.7891 11.8528 18.7891 12.5C18.7891 13.1472 19.3137 13.6719 19.9609 13.6719Z" fill="white"/>
<path id="Vector_7" d="M22.3828 18.75C22.3828 18.1028 21.8581 17.5781 21.2109 17.5781H19.9609C19.3137 17.5781 18.7891 18.1028 18.7891 18.75C18.7891 19.3972 19.3137 19.9219 19.9609 19.9219H21.2109C21.8581 19.9219 22.3828 19.3972 22.3828 18.75Z" fill="white"/>
</g>
</g>
<defs>
<clipPath id="clip0_4104_82">
<rect width="40" height="40" fill="white"/>
</clipPath>
</defs>
</svg>
