<svg width="25" height="25" viewBox="0 0 25 25" fill="none" xmlns="http://www.w3.org/2000/svg">
<g id="password 2" clip-path="url(#clip0_3945_1310)">
<g id="Group">
<g id="Group_2">
<path id="Vector" d="M17.7734 8.40143C18.6364 8.40143 19.3359 7.70188 19.3359 6.83894C19.3359 5.976 18.6364 5.27644 17.7734 5.27644C16.9105 5.27644 16.2109 5.976 16.2109 6.83894C16.2109 7.70188 16.9105 8.40143 17.7734 8.40143Z" fill="#2E4A7D"/>
</g>
</g>
<g id="Group_3">
<g id="Group_4">
<path id="Vector_2" d="M24.7303 8.10242C24.2088 6.77459 23.2525 4.85873 21.6583 3.27202C20.0696 1.69077 18.1741 0.76187 16.8637 0.260993C15.425 -0.288858 13.7902 0.0577222 12.6989 1.1439L8.86403 4.96078C7.72726 6.09217 7.39963 7.83308 8.0487 9.29279C8.24997 9.74553 8.46886 10.1883 8.70275 10.6162L0.286034 19.0328C0.10288 19.216 0 19.4644 0 19.7234V24.0203C0 24.5596 0.437205 24.9968 0.976559 24.9968H5.27342C5.81277 24.9968 6.24998 24.5596 6.24998 24.0203V22.2625L8.00778 22.2624C8.54713 22.2624 8.98434 21.8252 8.98434 21.2859V19.5281H10.7421C11.2815 19.5281 11.7187 19.0909 11.7187 18.5515C11.7187 18.0122 11.2815 17.575 10.7421 17.575H8.00778C7.46843 17.575 7.03122 18.0122 7.03122 18.5515V20.3093L5.27342 20.3094C4.73406 20.3094 4.29686 20.7466 4.29686 21.2859V23.0437H1.95312V20.1279L10.613 11.4681C10.9312 11.1499 10.9908 10.6556 10.7574 10.271C10.419 9.71315 10.1081 9.11706 9.83346 8.49924C9.51124 7.77459 9.6754 6.90892 10.242 6.345L14.0768 2.52817C14.6243 1.9833 15.4445 1.80952 16.1665 2.0854C17.3004 2.5188 18.9345 3.31655 20.2805 4.65629C21.6348 6.00413 22.4592 7.66248 22.9124 8.81628C23.1951 9.5364 23.0233 10.3545 22.4746 10.9006L18.5935 14.7636C18.0283 15.326 17.1847 15.4905 16.4443 15.1825C15.8336 14.9285 15.2421 14.6268 14.6865 14.2857C14.2268 14.0036 13.6255 14.1475 13.3434 14.6072C13.0612 15.0668 13.2051 15.6682 13.6648 15.9503C14.307 16.3445 14.9898 16.6929 15.6942 16.9858C17.1659 17.5981 18.8448 17.269 19.9713 16.1479L23.8524 12.285C24.9532 11.1893 25.2978 9.54758 24.7303 8.10242Z" fill="#2E4A7D"/>
</g>
</g>
</g>
<defs>
<clipPath id="clip0_3945_1310">
<rect width="25" height="25" fill="white"/>
</clipPath>
</defs>
</svg>
