<svg xmlns="http://www.w3.org/2000/svg" width="35" height="35" viewBox="0 0 35 35" fill="none">
  <g clip-path="url(#clip0_4330_922)">
    <path d="M25.3336 11.5735C25.1726 11.1372 24.9157 10.7422 24.582 10.4181C24.2578 10.0843 23.8631 9.82741 23.4265 9.66639C23.0724 9.52887 22.5405 9.36518 21.5608 9.32059C20.501 9.27225 20.1832 9.26184 17.5001 9.26184C14.8167 9.26184 14.499 9.27199 13.4394 9.32032C12.4597 9.36518 11.9275 9.52887 11.5737 9.66639C11.1371 9.82741 10.7421 10.0843 10.4182 10.4181C10.0844 10.7422 9.82755 11.1369 9.66627 11.5735C9.52875 11.9276 9.36506 12.4598 9.32047 13.4395C9.27213 14.4991 9.26172 14.8168 9.26172 17.5002C9.26172 20.1833 9.27213 20.5011 9.32047 21.5609C9.36506 22.5406 9.52875 23.0726 9.66627 23.4267C9.82755 23.8632 10.0842 24.2579 10.418 24.5821C10.7421 24.9159 11.1368 25.1728 11.5734 25.3338C11.9275 25.4716 12.4597 25.6352 13.4394 25.6798C14.499 25.7282 14.8165 25.7383 17.4998 25.7383C20.1835 25.7383 20.5012 25.7282 21.5605 25.6798C22.5403 25.6352 23.0724 25.4716 23.4265 25.3338C24.3029 24.9957 24.9956 24.303 25.3336 23.4267C25.4712 23.0726 25.6349 22.5406 25.6797 21.5609C25.7281 20.5011 25.7382 20.1833 25.7382 17.5002C25.7382 14.8168 25.7281 14.4991 25.6797 13.4395C25.6351 12.4598 25.4714 11.9276 25.3336 11.5735ZM17.5001 22.66C14.6501 22.66 12.3398 20.3499 12.3398 17.4999C12.3398 14.6499 14.6501 12.3399 17.5001 12.3399C20.3498 12.3399 22.6602 14.6499 22.6602 17.4999C22.6602 20.3499 20.3498 22.66 17.5001 22.66ZM22.8642 13.3418C22.1982 13.3418 21.6583 12.8018 21.6583 12.1359C21.6583 11.4699 22.1982 10.93 22.8642 10.93C23.5301 10.93 24.0701 11.4699 24.0701 12.1359C24.0698 12.8018 23.5301 13.3418 22.8642 13.3418Z" fill="#2E4A7D"/>
    <path d="M20.8496 17.5C20.8496 19.35 19.35 20.8496 17.5 20.8496C15.65 20.8496 14.1504 19.35 14.1504 17.5C14.1504 15.65 15.65 14.1504 17.5 14.1504C19.35 14.1504 20.8496 15.65 20.8496 17.5Z" fill="#2E4A7D"/>
    <path d="M32.4758 0H2.52422C1.13007 0 0 1.13007 0 2.52422V32.4758C0 33.8699 1.13007 35 2.52422 35H32.4758C33.8699 35 35 33.8699 35 32.4758V2.52422C35 1.13007 33.8699 0 32.4758 0V0ZM27.4882 21.643C27.4396 22.7127 27.2695 23.443 27.0212 24.0823C26.4991 25.4321 25.4321 26.4991 24.0823 27.0212C23.4433 27.2695 22.7127 27.4393 21.6432 27.4882C20.5716 27.5371 20.2293 27.5488 17.5003 27.5488C14.771 27.5488 14.4289 27.5371 13.357 27.4882C12.2876 27.4393 11.557 27.2695 10.918 27.0212C10.2472 26.7688 9.64001 26.3734 9.13799 25.862C8.6269 25.3603 8.23143 24.7528 7.97909 24.0823C7.73075 23.4433 7.56065 22.7127 7.51205 21.6432C7.46265 20.5714 7.45117 20.229 7.45117 17.5C7.45117 14.771 7.46265 14.4286 7.51179 13.357C7.56039 12.2873 7.73022 11.557 7.97855 10.9177C8.2309 10.2472 8.62663 9.63974 9.13799 9.13799C9.63974 8.62663 10.2472 8.23116 10.9177 7.97882C11.557 7.73048 12.2873 7.56065 13.357 7.51179C14.4286 7.46292 14.771 7.45117 17.5 7.45117C20.229 7.45117 20.5714 7.46292 21.643 7.51205C22.7127 7.56065 23.443 7.73048 24.0823 7.97855C24.7528 8.2309 25.3603 8.62663 25.8623 9.13799C26.3734 9.64001 26.7691 10.2472 27.0212 10.9177C27.2698 11.557 27.4396 12.2873 27.4885 13.357C27.5373 14.4286 27.5488 14.771 27.5488 17.5C27.5488 20.229 27.5373 20.5714 27.4882 21.643Z" fill="#2E4A7D"/>
  </g>
  <defs>
    <clipPath id="clip0_4330_922">
      <rect width="35" height="35" rx="17.5" fill="white"/>
    </clipPath>
  </defs>
</svg>