<svg xmlns="http://www.w3.org/2000/svg" width="35" height="35" viewBox="0 0 35 35" fill="none">
  <path d="M34.0822 25.6864L29.1876 20.8021C27.4395 19.0577 24.4677 19.7555 23.7685 22.0232C23.2441 23.5932 21.496 24.4654 19.9227 24.1165C16.4266 23.2443 11.7067 18.7088 10.8327 15.0455C10.3083 13.4755 11.3571 11.7311 12.9304 11.2078C15.2029 10.5101 15.9021 7.54457 14.1541 5.80016L9.25943 0.915815C7.86096 -0.305272 5.76327 -0.305272 4.53961 0.915815L1.21825 4.2302C-2.10311 7.71902 1.56787 16.9644 9.78386 25.1631C17.9998 33.3618 27.2647 37.1996 30.7608 33.7107L34.0822 30.3963C35.3059 29.0008 35.3059 26.9075 34.0822 25.6864Z" fill="#2E4A7D"/>
</svg>